<?xml version="1.0" encoding="UTF-8"?><svg id="Layer_2" xmlns="http://www.w3.org/2000/svg" viewBox="0 0 312.56 397.6"><defs><style>.cls-1{fill:#613915;}.cls-2{fill:#df7c18;}.cls-3{fill:none;stroke:#000;stroke-miterlimit:10;}.cls-4{fill:#64330f;}.cls-5{fill:#ffa12a;}.cls-6{fill:#603a0f;}.cls-7{fill:#e38f27;}</style></defs><g id="Layer_1-2"><g><path class="cls-6" d="M76.28,11.59l-.52,6.92c-.01-.12-.01-.25-.02-.37l-44.74,3.81-17.69,1.5,.05-12.07,62.92,.21Z"/><line class="cls-3" x1="76.28" y1="11.59" x2="76.28" y2="11.58"/><path class="cls-3" d="M5.03,77.58s-.01,.01-.01,.01"/><g><polygon class="cls-4" points="24.05 302.53 12.24 302.54 12.75 168.95 17.1 220.32 19.5 248.79 24.05 302.53"/><path class="cls-2" d="M304.54,207.21v9.87s-11.6,1.66-29.59,1.35c-.46,0-.93-.01-1.4-.03-.55,0-1.1-.02-1.67-.04-.52-.01-1.05-.03-1.58-.05-1.64-.05-3.33-.12-5.06-.22-.86-.05-1.72-.1-2.6-.15-.2-.01-.42-.03-.63-.04-1.01-.07-2.03-.14-3.07-.23-1.35-.1-2.71-.21-4.1-.35-1.02-.09-2.04-.19-3.08-.31-5.42-.56-11.12-1.34-17-2.38-.71-.12-1.42-.25-2.14-.38-.72-.13-1.44-.27-2.16-.41-.56-.11-1.13-.22-1.69-.34-1.71-.34-3.44-.7-5.17-1.1-1.36-.3-2.72-.62-4.08-.96-.03,0-.06-.01-.09-.02-1.4-.34-2.8-.7-4.21-1.07-1.57-.41-3.15-.85-4.74-1.32-1.25-.36-2.5-.73-3.76-1.12-1.02-.31-2.04-.64-3.06-.97-.76-.25-1.52-.5-2.28-.76-.73-.25-1.47-.5-2.21-.76-1.56-.54-3.11-1.11-4.67-1.71-.77-.29-1.53-.58-2.3-.88-1.13-.44-2.27-.9-3.4-1.37-.01-.01-.02-.01-.02-.01-3.45-1.43-6.91-2.98-10.34-4.66-.76-.37-1.53-.74-2.29-1.13-.76-.38-1.52-.77-2.28-1.17-.84-.43-1.68-.88-2.51-1.33-.68-.37-1.36-.74-2.03-1.12-.83-.46-1.66-.93-2.48-1.41-.65-.37-1.3-.75-1.94-1.14-1.53-.91-3.06-1.85-4.57-2.82-.74-.47-1.47-.94-2.2-1.43-.01,0-.02-.01-.03-.02-.74-.48-1.47-.97-2.2-1.48-.64-.43-1.27-.87-1.91-1.32-.21-.14-.42-.29-.63-.44-.18-.13-.36-.26-.54-.39-.52-.37-1.04-.75-1.56-1.13-2.1-1.54-4.17-3.13-6.22-4.79-.02,0-.04-.02-.06-.05-1.42-1.15-2.83-2.33-4.23-3.54-.47-.4-.93-.81-1.39-1.22-5.11-4.52-10.05-9.46-14.77-14.86-.42-.48-.83-.96-1.25-1.45-1.77-2.06-3.5-4.19-5.19-6.39-.49-.63-.97-1.26-1.44-1.9-.48-.64-.96-1.28-1.43-1.93-.41-.56-.82-1.13-1.22-1.7-1-1.4-1.98-2.83-2.95-4.29-.46-.68-.91-1.37-1.35-2.07-.45-.69-.89-1.39-1.33-2.1-.44-.71-.88-1.42-1.31-2.14-.4-.65-.79-1.3-1.17-1.96-.44-.74-.87-1.48-1.3-2.23-.03-.06-.07-.12-.1-.18-.86-1.52-1.71-3.06-2.53-4.63-.39-.73-.78-1.46-1.15-2.21-.39-.75-.77-1.5-1.14-2.26-.44-.86-.86-1.73-1.27-2.61-.37-.76-.73-1.53-1.08-2.3-1.53-3.29-2.98-6.69-4.37-10.19-.28-.72-.57-1.45-.84-2.18-.1-.25-.2-.5-.29-.75-.21-.54-.41-1.08-.61-1.63-.28-.74-.55-1.49-.81-2.24-.22-.6-.43-1.19-.63-1.79-.23-.66-.46-1.32-.68-1.99l-.06-.18c-.66-1.95-1.3-3.93-1.9-5.94-.34-1.09-.66-2.19-.98-3.3-.3-1.02-.59-2.06-.88-3.1-.24-.88-.48-1.76-.71-2.65-.16-.61-.32-1.23-.48-1.85-.27-1.07-.54-2.15-.8-3.23-.48-2.02-.95-4.07-1.39-6.15-.03-.13-.06-.26-.08-.39-.26-1.2-.51-2.42-.75-3.64-.22-1.09-.43-2.19-.63-3.3-.19-1.01-.38-2.02-.55-3.04-.12-.67-.24-1.35-.35-2.03-.28-1.69-.55-3.4-.8-5.12-.1-.65-.2-1.31-.29-1.97-.05-.31-.09-.62-.13-.93-.27-1.95-.53-3.92-.77-5.91-.44-3.71-.82-7.5-1.14-11.37-.09-.95-.16-1.9-.23-2.86-.18-2.43-.34-4.89-.48-7.38v-.03l.52-6.92,12.55,.04c9.62,216.41,215.71,195.58,215.71,195.58Z"/><path class="cls-4" d="M300.31,302.32l-137.88,.11,41.95-3.74h.02l95.73-8.55,.18,12.18Z"/><polyline class="cls-1" points="287.09 11.63 300.31 11.63 300.31 132.81"/><g><g><path class="cls-5" d="M31,21.95c-3.95,25.97-25.38,54.84-25.97,55.63L.54,24.54l12.77-1.09,17.69-1.5Z"/><path class="cls-7" d="M4.64,78.94L0,24.09l31.59-2.69-.1,.63c-3.95,26-25.16,54.65-26.06,55.85l-.79,1.06ZM1.08,25l4.33,51.21c3.97-5.52,21.24-30.59,24.99-53.7L1.08,25Z"/></g><g><path class="cls-5" d="M78.57,47.48s-11.7,39.26-27.9,38.13c-26.56-1.86-43.28,20.01-43.28,20.01l-2.36-28.04c.59-.79,22.02-29.66,25.97-55.63l44.74-3.81c.01,.12,.01,.25,.02,.37v.03c.14,2.49,.3,4.95,.48,7.38,.07,.96,.14,1.91,.23,2.86,.32,3.87,.7,7.66,1.14,11.37,.24,1.99,.5,3.96,.77,5.91,.04,.31,.08,.62,.13,.93,.02,.16,.04,.33,.06,.49Z"/><path class="cls-7" d="M7,106.95l-2.48-29.52,.11-.15c.9-1.2,21.96-29.65,25.88-55.41l.06-.39,45.63-3.89,.06,.87c.14,2.53,.3,4.99,.48,7.42,.07,.96,.14,1.9,.23,2.85,.32,3.84,.7,7.66,1.14,11.36,.24,1.99,.5,3.95,.77,5.9,.04,.31,.08,.61,.13,.92l.08,.61-.03,.1c-.48,1.62-12,39.63-28.41,38.49-25.97-1.82-42.68,19.6-42.85,19.81l-.79,1.03Zm-1.46-29.23l2.24,26.64c3.65-4.22,19.61-20.88,42.92-19.25,15.23,1.11,26.69-35.49,27.36-37.68l-.05-.38c-.05-.3-.09-.61-.13-.93-.27-1.95-.53-3.92-.77-5.91-.44-3.71-.82-7.54-1.14-11.39-.09-.95-.16-1.9-.23-2.87-.18-2.39-.34-4.82-.47-7.27l-43.83,3.73c-4,25.21-24,52.76-25.89,55.31Z"/></g><g><path class="cls-5" d="M312.01,289.08l-11.88,1.06-95.73,8.55h-.02c-16.41-3.71-31.98-14.69-63.97-48.28-31.79-33.38-122.12-30.13-123.31-30.09l-4.35-51.37-1.28-15.14s25.14,32.2,67.14,37.6c42,5.4,52.33-15.26,74.76-9.43,.21,.15,.42,.3,.63,.44,.64,.45,1.27,.89,1.91,1.32,.73,.51,1.46,1,2.2,1.48,.01,.01,.02,.02,.03,.02,.73,.49,1.46,.97,2.2,1.43,1.51,.97,3.04,1.91,4.57,2.82,.64,.39,1.29,.77,1.94,1.14,.82,.48,1.65,.95,2.48,1.41,.67,.38,1.35,.75,2.03,1.12,.83,.45,1.67,.9,2.51,1.33,.76,.4,1.52,.79,2.28,1.17,.76,.39,1.53,.77,2.29,1.13,3.43,1.68,6.89,3.23,10.34,4.66,0,0,.01,0,.02,.01,.76,.45,25.19,15.01,49.34,44.15,30.79,37.15,72.73,32.5,72.73,32.5l1.14,10.97Z"/><path class="cls-7" d="M204.37,299.2l-.1-.02c-17.25-3.9-33.46-16.12-64.22-48.42-31.13-32.69-119.18-30.06-122.91-29.94l-.48,.02-.06-.47-5.77-68.18,1.03,1.32c.25,.32,25.51,32.1,66.81,37.41,22.92,2.95,36.56-1.98,47.52-5.94,9.14-3.3,17.03-6.15,27.3-3.48l.16,.08c.24,.17,.43,.31,.62,.43,.65,.46,1.27,.89,1.91,1.32,.7,.49,1.4,.96,2.1,1.42l.07,.05h.02l.06,.05c.72,.48,1.44,.95,2.16,1.41,1.42,.92,2.91,1.83,4.56,2.82,.64,.39,1.29,.77,1.93,1.13,.82,.48,1.65,.95,2.47,1.41,.67,.38,1.35,.75,2.03,1.12,.83,.45,1.66,.9,2.5,1.32,.76,.4,1.52,.79,2.28,1.17,.76,.39,1.53,.77,2.28,1.12,3.28,1.6,6.71,3.15,10.23,4.61h.1l.12,.1c1.51,.9,25.62,15.51,49.43,44.24,30.25,36.5,71.87,32.37,72.29,32.32l.5-.05,1.24,11.97-108.19,9.66ZM24.3,219.72c22.38,0,89.86,2.4,116.47,30.34,30.57,32.1,46.64,44.25,63.65,48.12l107.04-9.56-1.04-9.98c-4.86,.36-43.87,2.03-72.67-32.72-23.8-28.72-47.89-43.25-49.19-44.03-3.56-1.47-7.04-3.04-10.35-4.66-.76-.36-1.53-.74-2.3-1.13-.76-.38-1.52-.77-2.28-1.17-.84-.43-1.68-.88-2.52-1.33-.68-.37-1.37-.74-2.04-1.12-.83-.46-1.66-.93-2.49-1.41-.65-.37-1.3-.75-1.95-1.14-1.65-.98-3.15-1.91-4.58-2.83-.7-.43-1.39-.89-2.08-1.35h-.07l-.13-.13c-.73-.47-1.45-.96-2.17-1.46-.64-.43-1.27-.87-1.91-1.32-.18-.12-.37-.25-.56-.39-9.93-2.55-17.3,.11-26.62,3.47-11.06,4-24.82,8.96-47.99,5.99-37.04-4.76-61.29-30.6-66.44-36.56l5.46,64.46c1.04-.03,3.38-.08,6.74-.08Z"/></g><g><path class="cls-5" d="M153.37,181.98c-22.43-5.83-32.76,14.83-74.76,9.43-42-5.4-67.14-37.6-67.14-37.6l-4.08-48.19s16.72-21.87,43.28-20.01c16.2,1.13,27.9-38.13,27.9-38.13,.08,.49,.15,.99,.23,1.48,.25,1.72,.52,3.43,.8,5.12,.11,.68,.23,1.36,.35,2.03,.17,1.02,.36,2.03,.55,3.04,.2,1.11,.41,2.21,.63,3.3,.24,1.22,.49,2.44,.75,3.64,.02,.13,.05,.26,.08,.39,.44,2.08,.91,4.13,1.39,6.15,.26,1.08,.53,2.16,.8,3.23,.16,.62,.32,1.24,.48,1.85,.23,.89,.47,1.77,.71,2.65,.29,1.04,.58,2.08,.88,3.1,.32,1.11,.64,2.21,.98,3.3,.6,2.01,1.24,3.99,1.9,5.94,0,0-23.89,19.05,15.56,35.14,.43,.75,.86,1.49,1.3,2.23,.38,.66,.77,1.31,1.17,1.96,.42,.72,.86,1.43,1.31,2.14,.43,.71,.88,1.41,1.33,2.1,.44,.7,.89,1.39,1.35,2.07,.97,1.46,1.95,2.89,2.95,4.29,.4,.57,.81,1.14,1.22,1.7,.47,.65,.95,1.29,1.43,1.93,.47,.64,.95,1.27,1.44,1.9,1.69,2.2,3.42,4.33,5.19,6.39,.42,.49,.83,.97,1.25,1.45,4.72,5.4,9.66,10.34,14.77,14.86,.46,.41,.92,.82,1.39,1.22,1.4,1.21,2.81,2.39,4.23,3.54,.02,.03,.04,.05,.06,.05,2.05,1.66,4.12,3.25,6.22,4.79,.52,.38,1.04,.76,1.56,1.13,.18,.13,.36,.26,.54,.39Z"/><path class="cls-7" d="M92.11,192.82c-4.14,0-8.64-.27-13.57-.91-41.72-5.36-67.22-37.46-67.47-37.79l-.09-.12v-.15l-4.11-48.38,.12-.15c.17-.22,17.18-22.06,43.71-20.21,.22,.02,.44,.02,.65,.02,15.29,0,26.62-37.41,26.73-37.8l.62-2.09,.58,3.63c.25,1.73,.52,3.43,.8,5.12,.11,.68,.23,1.36,.35,2.02,.17,1.02,.36,2.02,.55,3.02,.2,1.12,.41,2.22,.63,3.31,.24,1.22,.49,2.44,.75,3.63,.02,.15,.05,.27,.08,.38,.39,1.86,.83,3.81,1.39,6.15,.26,1.08,.53,2.15,.8,3.22l.48,1.84c.23,.89,.47,1.77,.71,2.65,.29,1.04,.58,2.07,.88,3.09,.32,1.11,.64,2.21,.98,3.29,.56,1.87,1.18,3.81,1.9,5.93l.11,.33-.27,.22c-.08,.06-8.06,6.55-6.85,14.88,1.05,7.27,8.55,13.8,22.29,19.4l.16,.06,.09,.15c.43,.75,.86,1.49,1.3,2.22,.38,.66,.77,1.31,1.17,1.95,.42,.72,.86,1.43,1.31,2.13,.43,.71,.88,1.41,1.33,2.1,.44,.7,.89,1.39,1.35,2.06,1.03,1.55,1.99,2.95,2.94,4.28,.4,.57,.81,1.14,1.22,1.7,.47,.65,.95,1.29,1.43,1.92,.47,.64,.95,1.27,1.43,1.89,1.68,2.18,3.42,4.33,5.17,6.37l.15,.17c.37,.43,.73,.85,1.1,1.27,4.57,5.23,9.53,10.22,14.73,14.82,.46,.41,.92,.82,1.38,1.21,1.38,1.2,2.8,2.38,4.22,3.53l.06,.05c1.97,1.6,4.06,3.2,6.2,4.77,.52,.38,1.04,.76,1.55,1.13l2.71,1.95-2.58-.67c-9.98-2.59-17.36,.07-26.71,3.45-8.71,3.15-19.1,6.9-34.42,6.9ZM11.96,153.62c1.7,2.11,26.67,32.15,66.72,37.3,22.92,2.95,36.56-1.98,47.52-5.94,8.42-3.04,15.78-5.7,24.92-4.01-.05-.03-.09-.07-.14-.1-2.11-1.54-4.16-3.12-6.1-4.69h-.09l-.15-.2c-1.41-1.14-2.82-2.33-4.2-3.52-.47-.4-.93-.81-1.4-1.22-5.23-4.62-10.21-9.64-14.81-14.9-.37-.42-.74-.85-1.11-1.28l-.15-.17c-1.77-2.06-3.52-4.21-5.21-6.41-.49-.63-.97-1.26-1.45-1.91-.48-.64-.96-1.28-1.43-1.93-.41-.56-.82-1.13-1.22-1.71-.95-1.34-1.92-2.74-2.96-4.3-.46-.68-.91-1.38-1.36-2.08-.45-.69-.9-1.39-1.33-2.11-.45-.71-.89-1.42-1.31-2.15-.4-.64-.79-1.3-1.17-1.96-.41-.69-.81-1.38-1.21-2.08-14-5.74-21.65-12.51-22.74-20.13-1.17-8.1,5.48-14.31,6.95-15.57-.68-2.01-1.26-3.85-1.8-5.63-.34-1.09-.66-2.19-.98-3.31-.3-1.02-.59-2.06-.88-3.1-.24-.89-.48-1.77-.71-2.66l-.46-1.77c-.29-1.16-.56-2.24-.82-3.32-.56-2.34-1-4.3-1.39-6.16-.03-.13-.06-.28-.09-.42-.25-1.17-.51-2.4-.75-3.62-.22-1.09-.43-2.19-.63-3.31-.19-1.02-.38-2.03-.55-3.05-.12-.67-.24-1.35-.35-2.03-.25-1.48-.48-2.98-.71-4.48-2.69,8.19-13.35,37.41-27.76,36.43-24.83-1.74-41.19,17.75-42.73,19.67l4.05,47.84Z"/></g><g><path class="cls-5" d="M204.38,298.69l-41.95,3.74-56.04,5c-61.61-59.78-86.89-58.64-86.89-58.64l-2.4-28.47c1.19-.04,91.52-3.29,123.31,30.09,31.99,33.59,47.56,44.57,63.97,48.28Z"/><path class="cls-7" d="M106.21,307.95l-.16-.16c-60.62-58.82-86.29-58.54-86.52-58.5l-.48,.02-.04-.48-2.44-28.99,.53-.02c3.77-.13,92.25-2.77,123.69,30.25,30.61,32.14,46.69,44.29,63.72,48.14l3.11,.7-101.39,9.04ZM19.96,248.29c3.85,.13,29.49,3.24,86.61,58.62l94.84-8.46c-16.23-4.59-32.3-17.18-61.37-47.7-30.27-31.78-114.32-30.18-122.41-29.95l2.32,27.49Z"/></g><g><path class="cls-5" d="M106.39,307.43l-81.31,7.25-1.03-12.15-4.55-53.74s25.28-1.14,86.89,58.64Z"/><path class="cls-7" d="M24.62,315.23l-5.67-66.91,.52-.02c1.04-.05,26.2-.46,87.26,58.78l.78,.76-82.9,7.39Zm-4.58-65.91l5.49,64.83,79.72-7.11c-55.37-53.53-81.3-57.44-85.21-57.72Z"/></g><g><path class="cls-5" d="M310.87,278.11s-41.94,4.65-72.73-32.5c-24.15-29.14-48.58-43.7-49.34-44.15,1.13,.47,2.27,.93,3.4,1.37,.77,.3,1.53,.59,2.3,.88,1.56,.6,3.11,1.17,4.67,1.71,.74,.26,1.48,.51,2.21,.76,.76,.26,1.52,.51,2.28,.76,1.02,.33,2.04,.66,3.06,.97,1.26,.39,2.51,.77,3.76,1.12,1.59,.47,3.17,.91,4.74,1.32,1.41,.37,2.81,.73,4.21,1.07,.03,.01,.06,.02,.09,.02,1.36,.34,2.72,.66,4.08,.96,1.73,.4,3.46,.76,5.17,1.1,.56,.12,1.13,.23,1.69,.34,.72,.14,1.44,.28,2.16,.41,.72,.13,1.43,.26,2.14,.38,5.88,1.04,11.58,1.82,17,2.38,1.04,.12,2.06,.22,3.08,.31,1.39,.14,2.75,.25,4.1,.35,1.04,.09,2.06,.16,3.07,.23,.21,0,.43,.03,.63,.04,.88,.05,1.74,.1,2.6,.15,1.73,.1,3.42,.17,5.06,.22,.53,.02,1.06,.04,1.58,.05,.57,.02,1.12,.04,1.67,.04,.47,.02,.94,.03,1.4,.03,17.99,.31,29.59-1.35,29.59-1.35l6.33,61.03Z"/><path class="cls-7" d="M306.57,278.78c-11.59,0-43.99-2.89-68.82-32.84-23.96-28.91-48.19-43.44-49.21-44.04l.45-.89c1.13,.47,2.26,.93,3.39,1.37,.77,.3,1.53,.59,2.29,.88,1.61,.62,3.14,1.18,4.66,1.71,.57,.2,1.14,.4,1.71,.59l.5,.17c.76,.26,1.52,.51,2.27,.76,1.01,.33,2.03,.66,3.05,.97,1.26,.39,2.5,.77,3.75,1.12,1.6,.47,3.19,.92,4.73,1.32,1.41,.37,2.8,.73,4.2,1.07,1.45,.36,2.8,.68,4.16,.98,1.53,.35,3.17,.7,5.16,1.1,.53,.11,1.06,.22,1.58,.32l.11,.02c.72,.14,1.44,.28,2.15,.41l.34,.06c.6,.11,1.2,.22,1.79,.32,5.62,.99,11.33,1.79,16.97,2.38,1.04,.12,2.06,.22,3.07,.31,1.39,.14,2.75,.25,4.09,.35,1.01,.09,1.99,.16,2.96,.22l3.33,.2c1.58,.09,3.23,.16,5.05,.22h.14c.48,.02,.96,.04,1.44,.05h.14c.52,.02,1.02,.04,1.52,.04,.48,.02,.95,.03,1.4,.03,17.74,.31,29.4-1.33,29.52-1.35l.51-.07,6.43,62.04-.49,.05c-.08,0-1.65,.17-4.35,.17Zm-113.16-74.94c8.22,5.55,26.76,19.31,45.11,41.46,28.48,34.36,66.99,32.72,71.8,32.36l-6.22-60.01c-2.45,.31-13.43,1.56-29.15,1.29h0c-.46,0-.93-.01-1.41-.03-.5-.03-1.01-.02-1.54-.04h-.13c-.47-.01-.96-.03-1.45-.05h-.13c-1.82-.06-3.48-.13-5.07-.23l-3.35-.2c-.98-.07-1.96-.14-2.97-.22-1.35-.1-2.71-.21-4.11-.35-1.02-.09-2.04-.19-3.09-.31-5.66-.58-11.39-1.39-17.03-2.38-.6-.1-1.19-.21-1.8-.32l-.34-.06c-.72-.13-1.44-.27-2.17-.41l-.11-.02c-.53-.1-1.06-.21-1.59-.32-1.99-.4-3.64-.75-5.18-1.1-1.34-.3-2.68-.61-4.03-.95l-.2-.05c-1.35-.33-2.76-.69-4.17-1.06-1.55-.41-3.15-.85-4.76-1.32-1.25-.35-2.5-.73-3.77-1.12-1.02-.31-2.04-.64-3.07-.97-.76-.25-1.53-.5-2.29-.76l-.5-.17c-.57-.19-1.14-.39-1.71-.59-1.53-.53-3.06-1.09-4.68-1.71-.3-.11-.61-.23-.91-.34Z"/></g><g><path class="cls-5" d="M234.81,166.08c-11.52,1.73-23.96,1.39-36.79-2.44-6.16-1.84-11.97-4.38-17.38-7.53,0,0,8.14,.55,17.9-1.03,25.37-4.11,35.93,10.51,36.27,11Z"/><path class="cls-7" d="M221.67,167.58c-8.12,0-16.08-1.15-23.8-3.45-6.1-1.82-11.98-4.37-17.49-7.58l-1.85-1.07,2.13,.14c.08,0,8.2,.53,17.79-1.02,25.77-4.18,36.32,10.58,36.76,11.21l.46,.66-.79,.12c-4.44,.67-8.85,1-13.21,1Zm-39-10.89c4.92,2.7,10.12,4.87,15.49,6.48,11.44,3.42,23.46,4.27,35.72,2.55-2.4-2.83-13.21-13.71-35.26-10.14-6.81,1.1-12.9,1.17-15.95,1.11Z"/></g><g><path class="cls-5" d="M281.55,147.41c-11.66,7.6-27.99,15.87-46.74,18.67-.34-.49-10.9-15.11-36.27-11-9.76,1.58-17.9,1.03-17.9,1.03-19.89-11.56-34.27-31.27-39.85-54.22-12.8-52.71,27.22-90.51,27.22-90.51l44.4-4.08s-5.76,14.58-13.79,35.71c-9.81,25.8-34.33,32.56-42.35,40.8-36.66,37.69,110.35,43.85,125.28,63.6Z"/><path class="cls-7" d="M234.58,166.62l-.18-.25c-.1-.15-10.63-14.86-35.78-10.79-9.7,1.57-17.93,1.04-18.01,1.04h-.12l-.1-.07c-19.85-11.54-34.46-31.42-40.08-54.53-12.72-52.39,26.96-90.61,27.36-90.99l.13-.12,.17-.02,45.21-4.15-.3,.76c-.06,.15-5.85,14.82-13.79,35.7-7.01,18.44-21.52,27.27-32.11,33.71-4.32,2.63-8.06,4.9-10.35,7.26-4.83,4.97-6.57,9.44-5.32,13.67,4.18,14.16,41.73,22.74,74.86,30.31,25.77,5.89,50.11,11.45,55.79,18.97l.32,.43-.45,.29c-10.66,6.95-27.45,15.83-46.94,18.75l-.31,.05Zm-27.25-12.78c18.04,0,26.35,9.91,27.71,11.7,18.9-2.89,35.24-11.44,45.78-18.25-6.06-7.02-29.79-12.44-54.88-18.18-35.02-8-71.24-16.28-75.59-31-1.34-4.55,.53-9.48,5.57-14.65,2.38-2.45,6.17-4.75,10.55-7.42,10.47-6.37,24.8-15.09,31.69-33.21,6.92-18.21,12.21-31.7,13.49-34.96l-43.42,3.99c-2.43,2.38-39.19,39.54-26.96,89.91,5.55,22.81,19.95,42.43,39.51,53.85,1.02,.06,8.71,.42,17.67-1.03,3.19-.52,6.14-.74,8.87-.74Z"/></g><g><path class="cls-5" d="M300.31,132.81s-7.02,6.96-18.76,14.6c-14.93-19.75-161.94-25.91-125.28-63.6,8.02-8.24,32.54-15,42.35-40.8,8.03-21.13,13.79-35.71,13.79-35.71l57.43-5.28s-3.1,14.78-13.39,34.89c-5.24,10.24-12.2,19.46-20.22,27.7-36.68,37.69,62.85,56.96,62.85,56.96l1.23,11.24Z"/><path class="cls-7" d="M281.43,148.09l-.28-.37c-5.46-7.23-29.63-12.75-55.21-18.6-35.02-8-71.24-16.28-75.59-31-1.34-4.55,.53-9.48,5.57-14.65,2.38-2.45,6.17-4.75,10.55-7.42,10.47-6.37,24.8-15.09,31.69-33.21,7.94-20.89,13.73-35.57,13.79-35.72l.11-.29,58.41-5.37-.14,.66c-.03,.15-3.23,15.08-13.43,35.02-4.98,9.73-11.81,19.09-20.31,27.82-6.87,7.05-9.31,13.93-7.27,20.44,7.31,23.32,69.23,35.56,69.86,35.68l.36,.07,1.3,11.85-.17,.17c-.07,.07-7.19,7.08-18.84,14.66l-.39,.25ZM212.76,7.77c-.85,2.15-6.35,16.13-13.67,35.42-7.01,18.44-21.52,27.27-32.11,33.71-4.32,2.63-8.06,4.9-10.35,7.26-4.83,4.97-6.57,9.44-5.32,13.67,4.18,14.16,41.73,22.74,74.86,30.31,25.35,5.79,49.31,11.27,55.5,18.6,10.35-6.78,17-13.03,18.13-14.12l-1.16-10.63c-5.64-1.12-62.98-13.1-70.26-36.29-2.16-6.89,.37-14.1,7.51-21.43,8.42-8.66,15.2-17.94,20.13-27.58,8.93-17.44,12.46-31.01,13.19-34.1l-56.44,5.19Z"/></g><g><path class="cls-5" d="M299.08,121.57s-99.53-19.27-62.85-56.96c8.02-8.24,14.98-17.46,20.22-27.7,10.29-20.11,13.39-34.89,13.39-34.89l16.03-1.48,1.21,11.09,12,109.94Z"/><path class="cls-7" d="M299.65,122.19l-.67-.13c-2.57-.5-63.13-12.48-70.62-36.37-2.16-6.89,.37-14.1,7.51-21.43,8.42-8.66,15.2-17.94,20.13-27.58,10.14-19.81,13.32-34.62,13.35-34.77l.08-.36,16.89-1.56,13.34,122.19ZM270.25,2.49c-.55,2.4-4.03,16.43-13.35,34.65-4.98,9.73-11.81,19.09-20.31,27.82-6.87,7.05-9.31,13.93-7.27,20.44,6.9,22.01,62.44,34.15,69.19,35.55L285.43,1.09l-15.18,1.4Z"/></g><g><path class="cls-5" d="M104.66,127.84c-39.45-16.09-15.56-35.14-15.56-35.14l.06,.18c.22,.67,.45,1.33,.68,1.99,.2,.6,.41,1.19,.63,1.79,.26,.75,.53,1.5,.81,2.24,.2,.55,.4,1.09,.61,1.63,.09,.25,.19,.5,.29,.75,.27,.73,.56,1.46,.84,2.18,1.39,3.5,2.84,6.9,4.37,10.19,.35,.77,.71,1.54,1.08,2.3,.41,.88,.83,1.75,1.27,2.61,.37,.76,.75,1.51,1.14,2.26,.37,.75,.76,1.48,1.15,2.21,.82,1.57,1.67,3.11,2.53,4.63,.03,.06,.07,.12,.1,.18Z"/><path class="cls-7" d="M105.7,128.81l-1.23-.5c-14.1-5.75-21.8-12.54-22.9-20.19-1.28-8.91,6.87-15.52,7.22-15.8l.56-.45,.29,.86c.22,.66,.44,1.31,.67,1.96,.21,.63,.42,1.21,.64,1.81,.26,.75,.53,1.5,.81,2.24,.2,.55,.4,1.09,.61,1.63,.09,.26,.19,.5,.29,.75,.21,.57,.43,1.12,.64,1.67l.2,.52c1.43,3.59,2.89,7.01,4.36,10.16,.35,.77,.71,1.54,1.08,2.29,.41,.88,.83,1.75,1.27,2.6,.37,.76,.75,1.51,1.14,2.26,.37,.74,.75,1.46,1.13,2.17,.75,1.44,1.55,2.91,2.54,4.66l.11,.2,.59,1.19Zm-16.84-35.23c-1.8,1.65-7.32,7.37-6.31,14.4,1.02,7.03,8.06,13.37,20.96,18.85-.72-1.29-1.35-2.45-1.93-3.56-.4-.75-.79-1.48-1.16-2.22-.39-.74-.77-1.5-1.14-2.26-.44-.86-.86-1.73-1.27-2.62-.37-.76-.73-1.53-1.08-2.3-1.47-3.16-2.94-6.6-4.38-10.21l-.2-.52c-.22-.55-.44-1.11-.64-1.67-.1-.24-.2-.5-.29-.75-.21-.53-.41-1.07-.61-1.63-.28-.74-.55-1.49-.81-2.25-.22-.6-.43-1.19-.63-1.8-.17-.49-.34-.97-.5-1.46Z"/></g></g><path class="cls-3" d="M17.1,220.32h-.01"/><line class="cls-3" x1="281.56" y1="147.42" x2="281.55" y2="147.41"/><path class="cls-3" d="M234.82,166.09h-.01"/><g><path d="M42.13,335.52h5.31v23.19c0,4.03-.46,7.24-1.37,9.61-.91,2.37-2.56,4.3-4.94,5.79-2.38,1.49-5.51,2.23-9.38,2.23s-6.84-.65-9.23-1.94-4.1-3.17-5.12-5.63c-1.02-2.46-1.53-5.81-1.53-10.06v-23.19h5.31v23.16c0,3.49,.32,6.05,.97,7.71s1.76,2.92,3.34,3.82c1.58,.89,3.51,1.34,5.79,1.34,3.91,0,6.69-.89,8.35-2.66s2.49-5.17,2.49-10.21v-23.16Z"/><path d="M58.5,375.66v-40.14h17.8c3.58,0,6.3,.36,8.16,1.08,1.86,.72,3.35,2,4.46,3.82,1.11,1.83,1.67,3.84,1.67,6.05,0,2.85-.92,5.25-2.77,7.2-1.84,1.95-4.69,3.19-8.54,3.72,1.41,.68,2.47,1.34,3.2,2,1.55,1.42,3.02,3.2,4.41,5.34l6.98,10.92h-6.68l-5.31-8.35c-1.55-2.41-2.83-4.25-3.83-5.53s-1.9-2.17-2.7-2.68c-.79-.51-1.6-.87-2.42-1.07-.6-.13-1.59-.19-2.96-.19h-6.16v17.82h-5.31Zm5.31-22.42h11.42c2.43,0,4.33-.25,5.69-.75,1.37-.5,2.41-1.3,3.12-2.41,.71-1.1,1.07-2.3,1.07-3.6,0-1.9-.69-3.46-2.07-4.68-1.38-1.22-3.55-1.83-6.53-1.83h-12.7v13.28Z"/><path d="M100.82,375.66v-40.14h15.06c3.07,0,5.53,.41,7.38,1.22s3.3,2.06,4.35,3.75c1.05,1.69,1.57,3.45,1.57,5.3,0,1.72-.47,3.33-1.4,4.85-.93,1.52-2.34,2.74-4.22,3.67,2.43,.71,4.29,1.93,5.6,3.64,1.3,1.72,1.96,3.74,1.96,6.08,0,1.88-.4,3.63-1.19,5.24-.79,1.62-1.78,2.86-2.94,3.74-1.17,.88-2.63,1.54-4.39,1.99-1.76,.45-3.92,.67-6.48,.67h-15.3Zm5.31-23.27h8.68c2.35,0,4.04-.15,5.06-.46,1.35-.4,2.37-1.07,3.05-2s1.03-2.1,1.03-3.5c0-1.33-.32-2.5-.96-3.52-.64-1.01-1.55-1.71-2.74-2.08s-3.22-.56-6.11-.56h-8.02v12.13Zm0,18.54h9.99c1.72,0,2.92-.06,3.61-.19,1.22-.22,2.25-.58,3.07-1.09,.82-.51,1.5-1.25,2.03-2.23s.79-2.1,.79-3.38c0-1.5-.38-2.8-1.15-3.9-.77-1.1-1.83-1.88-3.19-2.33-1.36-.45-3.32-.67-5.87-.67h-9.28v13.8Z"/><path d="M136.17,375.66l15.41-40.14h5.72l16.43,40.14h-6.05l-4.68-12.16h-16.78l-4.41,12.16h-5.64Zm11.58-16.48h13.61l-4.19-11.12c-1.28-3.38-2.23-6.15-2.85-8.32-.51,2.57-1.23,5.13-2.16,7.67l-4.41,11.77Z"/><path d="M180.05,375.66v-40.14h5.45l21.08,31.51v-31.51h5.09v40.14h-5.45l-21.08-31.54v31.54h-5.09Z"/><path d="M221.11,356.11c0-6.66,1.79-11.88,5.37-15.65,3.58-3.77,8.2-5.65,13.85-5.65,3.71,0,7.05,.89,10.02,2.66s5.24,4.24,6.8,7.41c1.56,3.17,2.34,6.76,2.34,10.77s-.82,7.71-2.46,10.92c-1.64,3.21-3.97,5.64-6.98,7.3-3.01,1.65-6.26,2.48-9.75,2.48-3.78,0-7.16-.91-10.13-2.74-2.98-1.82-5.23-4.32-6.76-7.47-1.53-3.16-2.3-6.5-2.3-10.02Zm5.48,.08c0,4.84,1.3,8.65,3.9,11.43,2.6,2.78,5.86,4.18,9.79,4.18s7.29-1.41,9.87-4.22c2.58-2.81,3.87-6.8,3.87-11.96,0-3.27-.55-6.12-1.66-8.56-1.1-2.44-2.72-4.33-4.85-5.67-2.13-1.34-4.51-2.01-7.16-2.01-3.76,0-7,1.29-9.71,3.87-2.71,2.58-4.07,6.9-4.07,12.94Z"/><path d="M266.67,362.77l5.01-.44c.24,2.01,.79,3.66,1.66,4.94,.87,1.29,2.21,2.33,4.04,3.12,1.82,.79,3.88,1.19,6.16,1.19,2.03,0,3.81-.3,5.37-.9,1.55-.6,2.71-1.43,3.46-2.48,.76-1.05,1.14-2.19,1.14-3.44s-.37-2.36-1.09-3.3c-.73-.94-1.94-1.73-3.61-2.37-1.08-.42-3.46-1.07-7.15-1.96-3.69-.89-6.27-1.72-7.75-2.51-1.92-1-3.35-2.25-4.29-3.74-.94-1.49-1.41-3.15-1.41-5,0-2.03,.57-3.92,1.72-5.68,1.15-1.76,2.83-3.1,5.04-4.01,2.21-.91,4.66-1.37,7.36-1.37,2.98,0,5.6,.48,7.87,1.44s4.02,2.37,5.24,4.23c1.22,1.86,1.88,3.97,1.97,6.32l-5.09,.38c-.27-2.54-1.2-4.45-2.78-5.75-1.58-1.3-3.91-1.94-7-1.94s-5.55,.59-7.02,1.77c-1.47,1.18-2.2,2.6-2.2,4.26,0,1.44,.52,2.63,1.56,3.56,1.02,.93,3.69,1.88,8.01,2.86s7.28,1.83,8.88,2.56c2.34,1.08,4.06,2.44,5.17,4.09,1.11,1.65,1.67,3.55,1.67,5.71s-.61,4.15-1.83,6.04c-1.22,1.89-2.98,3.36-5.27,4.41-2.29,1.05-4.87,1.57-7.73,1.57-3.63,0-6.68-.53-9.13-1.59-2.46-1.06-4.38-2.65-5.78-4.78-1.4-2.13-2.13-4.53-2.2-7.21Z"/></g><g><path d="M11.76,397.43v-1.27l5.29-6.62c.38-.47,.73-.88,1.07-1.23h-5.76v-1.22h7.4v1.22l-5.8,7.16-.63,.73h6.59v1.22H11.76Z"/><path d="M20.98,392.4c0-1.71,.46-3.06,1.38-4.03s2.11-1.46,3.56-1.46c.95,0,1.81,.23,2.58,.68,.77,.46,1.35,1.09,1.75,1.91,.4,.82,.6,1.74,.6,2.77s-.21,1.98-.63,2.81c-.42,.83-1.02,1.45-1.8,1.88-.77,.42-1.61,.64-2.51,.64-.97,0-1.84-.23-2.61-.7-.77-.47-1.35-1.11-1.74-1.92s-.59-1.67-.59-2.58Zm1.41,.02c0,1.25,.33,2.23,1,2.94,.67,.72,1.51,1.07,2.52,1.07s1.88-.36,2.54-1.08,1-1.75,1-3.08c0-.84-.14-1.58-.43-2.2s-.7-1.11-1.25-1.46c-.55-.34-1.16-.52-1.84-.52-.97,0-1.8,.33-2.5,1-.7,.66-1.05,1.77-1.05,3.33Z"/><path d="M32.6,397.43v-10.33h1.4l5.42,8.11v-8.11h1.31v10.33h-1.4l-5.42-8.12v8.12h-1.31Z"/><path d="M41.9,397.43l3.97-10.33h1.47l4.23,10.33h-1.56l-1.2-3.13h-4.32l-1.13,3.13h-1.45Zm2.98-4.24h3.5l-1.08-2.86c-.33-.87-.57-1.58-.73-2.14-.13,.66-.32,1.32-.56,1.97l-1.13,3.03Z"/><path d="M52.19,394.11l1.29-.11c.06,.52,.2,.94,.43,1.27s.57,.6,1.04,.8c.47,.21,1,.31,1.58,.31,.52,0,.98-.08,1.38-.23,.4-.16,.7-.37,.89-.64,.19-.27,.29-.56,.29-.88s-.09-.61-.28-.85c-.19-.24-.5-.45-.93-.61-.28-.11-.89-.28-1.84-.5s-1.61-.44-1.99-.64c-.49-.26-.86-.58-1.1-.96s-.36-.81-.36-1.29c0-.52,.15-1.01,.44-1.46s.73-.8,1.3-1.03c.57-.23,1.2-.35,1.9-.35,.77,0,1.44,.12,2.02,.37,.58,.25,1.03,.61,1.35,1.09,.31,.48,.48,1.02,.51,1.63l-1.31,.1c-.07-.65-.31-1.15-.71-1.48-.41-.33-1.01-.5-1.8-.5s-1.43,.15-1.81,.45c-.38,.3-.57,.67-.57,1.1,0,.37,.13,.68,.4,.92,.26,.24,.95,.48,2.06,.74,1.11,.25,1.87,.47,2.29,.66,.6,.28,1.04,.63,1.33,1.05,.29,.42,.43,.91,.43,1.47s-.16,1.07-.47,1.55-.77,.86-1.36,1.13c-.59,.27-1.25,.4-1.99,.4-.93,0-1.72-.14-2.35-.41-.63-.27-1.13-.68-1.49-1.23-.36-.55-.55-1.17-.57-1.86Z"/><path d="M66.29,397.43v-10.33h3.56c.8,0,1.42,.05,1.84,.15,.59,.14,1.1,.38,1.51,.74,.54,.46,.95,1.05,1.22,1.76s.41,1.53,.41,2.46c0,.78-.09,1.48-.27,2.08s-.42,1.11-.7,1.5c-.29,.4-.6,.71-.94,.94-.34,.23-.75,.4-1.23,.52s-1.03,.18-1.66,.18h-3.73Zm1.37-1.22h2.21c.68,0,1.22-.06,1.6-.19,.39-.13,.7-.3,.93-.54,.32-.32,.58-.76,.76-1.31s.27-1.21,.27-1.99c0-1.08-.18-1.91-.53-2.49s-.79-.97-1.29-1.17c-.37-.14-.96-.21-1.77-.21h-2.17v7.89Z"/><path d="M76.73,397.43v-10.33h7.47v1.22h-6.1v3.16h5.71v1.21h-5.71v3.51h6.34v1.22h-7.71Z"/><path d="M97.71,393.81l1.37,.35c-.29,1.12-.8,1.98-1.55,2.57-.74,.59-1.65,.88-2.73,.88s-2.02-.23-2.72-.68-1.23-1.11-1.59-1.97c-.36-.86-.55-1.78-.55-2.77,0-1.08,.21-2.01,.62-2.81,.41-.8,1-1.41,1.75-1.82s1.59-.62,2.5-.62c1.03,0,1.9,.26,2.61,.79,.7,.53,1.2,1.27,1.47,2.22l-1.35,.32c-.24-.75-.59-1.3-1.04-1.64-.46-.34-1.03-.51-1.72-.51-.79,0-1.46,.19-1.99,.57-.53,.38-.91,.89-1.12,1.53-.22,.64-.32,1.3-.32,1.98,0,.88,.13,1.64,.38,2.3s.65,1.14,1.19,1.47c.54,.32,1.12,.49,1.75,.49,.77,0,1.41-.22,1.94-.66s.89-1.1,1.08-1.97Z"/><path d="M100.78,397.43v-10.33h4.58c.92,0,1.62,.09,2.1,.28s.86,.51,1.15,.98,.43,.99,.43,1.56c0,.73-.24,1.35-.71,1.85-.47,.5-1.21,.82-2.2,.96,.36,.17,.64,.34,.82,.51,.4,.37,.78,.82,1.13,1.37l1.8,2.81h-1.72l-1.37-2.15c-.4-.62-.73-1.09-.99-1.42-.26-.33-.49-.56-.69-.69-.2-.13-.41-.22-.62-.28-.16-.03-.41-.05-.76-.05h-1.58v4.59h-1.37Zm1.37-5.77h2.94c.62,0,1.11-.06,1.46-.19,.35-.13,.62-.34,.8-.62s.27-.59,.27-.93c0-.49-.18-.89-.53-1.2-.35-.31-.92-.47-1.68-.47h-3.27v3.42Z"/><path d="M111.2,397.43v-10.33h7.47v1.22h-6.1v3.16h5.71v1.21h-5.71v3.51h6.34v1.22h-7.71Z"/><path d="M119.66,397.43l3.97-10.33h1.47l4.23,10.33h-1.56l-1.2-3.13h-4.32l-1.13,3.13h-1.45Zm2.98-4.24h3.5l-1.08-2.86c-.33-.87-.57-1.58-.73-2.14-.13,.66-.32,1.32-.56,1.97l-1.13,3.03Z"/><path d="M137.79,393.81l1.37,.35c-.29,1.12-.8,1.98-1.55,2.57-.74,.59-1.65,.88-2.73,.88s-2.02-.23-2.72-.68-1.23-1.11-1.59-1.97c-.36-.86-.55-1.78-.55-2.77,0-1.08,.21-2.01,.62-2.81,.41-.8,1-1.41,1.75-1.82s1.59-.62,2.5-.62c1.03,0,1.9,.26,2.61,.79,.7,.53,1.2,1.27,1.47,2.22l-1.35,.32c-.24-.75-.59-1.3-1.04-1.64-.46-.34-1.03-.51-1.72-.51-.79,0-1.46,.19-1.99,.57-.53,.38-.91,.89-1.12,1.53-.22,.64-.32,1.3-.32,1.98,0,.88,.13,1.64,.38,2.3s.65,1.14,1.19,1.47c.54,.32,1.12,.49,1.75,.49,.77,0,1.41-.22,1.94-.66s.89-1.1,1.08-1.97Z"/><path d="M141.07,397.43v-10.33h1.37v10.33h-1.37Z"/><path d="M144.43,392.4c0-1.71,.46-3.06,1.38-4.03s2.11-1.46,3.56-1.46c.95,0,1.81,.23,2.58,.68,.77,.46,1.35,1.09,1.75,1.91,.4,.82,.6,1.74,.6,2.77s-.21,1.98-.63,2.81c-.42,.83-1.02,1.45-1.8,1.88-.77,.42-1.61,.64-2.51,.64-.97,0-1.84-.23-2.61-.7-.77-.47-1.35-1.11-1.74-1.92s-.59-1.67-.59-2.58Zm1.41,.02c0,1.25,.33,2.23,1,2.94,.67,.72,1.51,1.07,2.52,1.07s1.88-.36,2.54-1.08,1-1.75,1-3.08c0-.84-.14-1.58-.43-2.2s-.7-1.11-1.25-1.46c-.55-.34-1.16-.52-1.84-.52-.97,0-1.8,.33-2.5,1-.7,.66-1.05,1.77-1.05,3.33Zm2.66-5.95l.94-1.97h1.66l-1.55,1.97h-1.05Z"/><path d="M156.06,397.43v-10.33h1.4l5.42,8.11v-8.11h1.31v10.33h-1.4l-5.42-8.12v8.12h-1.31Z"/><path d="M173.15,397.43v-4.38l-3.98-5.95h1.66l2.04,3.11c.38,.58,.73,1.17,1.05,1.75,.31-.54,.69-1.15,1.13-1.82l2-3.04h1.59l-4.12,5.95v4.38h-1.37Z"/><path d="M190.97,393.81l1.37,.35c-.29,1.12-.8,1.98-1.55,2.57-.74,.59-1.65,.88-2.73,.88s-2.02-.23-2.72-.68-1.23-1.11-1.59-1.97c-.36-.86-.55-1.78-.55-2.77,0-1.08,.21-2.01,.62-2.81,.41-.8,1-1.41,1.75-1.82s1.59-.62,2.5-.62c1.03,0,1.9,.26,2.61,.79,.7,.53,1.2,1.27,1.47,2.22l-1.35,.32c-.24-.75-.59-1.3-1.04-1.64-.46-.34-1.03-.51-1.72-.51-.79,0-1.46,.19-1.99,.57-.53,.38-.91,.89-1.12,1.53-.22,.64-.32,1.3-.32,1.98,0,.88,.13,1.64,.38,2.3s.65,1.14,1.19,1.47c.54,.32,1.12,.49,1.75,.49,.77,0,1.41-.22,1.94-.66s.89-1.1,1.08-1.97Z"/><path d="M193.61,392.4c0-1.71,.46-3.06,1.38-4.03s2.11-1.46,3.56-1.46c.95,0,1.81,.23,2.58,.68,.77,.46,1.35,1.09,1.75,1.91,.4,.82,.6,1.74,.6,2.77s-.21,1.98-.63,2.81c-.42,.83-1.02,1.45-1.8,1.88-.77,.42-1.61,.64-2.51,.64-.97,0-1.84-.23-2.61-.7-.77-.47-1.35-1.11-1.74-1.92s-.59-1.67-.59-2.58Zm1.41,.02c0,1.25,.33,2.23,1,2.94,.67,.72,1.51,1.07,2.52,1.07s1.88-.36,2.54-1.08,1-1.75,1-3.08c0-.84-.14-1.58-.43-2.2s-.7-1.11-1.25-1.46c-.55-.34-1.16-.52-1.84-.52-.97,0-1.8,.33-2.5,1-.7,.66-1.05,1.77-1.05,3.33Z"/><path d="M205.23,397.43v-10.33h1.4l5.42,8.11v-8.11h1.31v10.33h-1.4l-5.42-8.12v8.12h-1.31Z"/><path d="M215.2,394.11l1.29-.11c.06,.52,.2,.94,.43,1.27s.57,.6,1.04,.8c.47,.21,1,.31,1.58,.31,.52,0,.98-.08,1.38-.23,.4-.16,.7-.37,.89-.64,.19-.27,.29-.56,.29-.88s-.09-.61-.28-.85c-.19-.24-.5-.45-.93-.61-.28-.11-.89-.28-1.84-.5s-1.61-.44-1.99-.64c-.49-.26-.86-.58-1.1-.96s-.36-.81-.36-1.29c0-.52,.15-1.01,.44-1.46s.73-.8,1.3-1.03c.57-.23,1.2-.35,1.9-.35,.77,0,1.44,.12,2.02,.37,.58,.25,1.03,.61,1.35,1.09,.31,.48,.48,1.02,.51,1.63l-1.31,.1c-.07-.65-.31-1.15-.71-1.48-.41-.33-1.01-.5-1.8-.5s-1.43,.15-1.81,.45c-.38,.3-.57,.67-.57,1.1,0,.37,.13,.68,.4,.92,.26,.24,.95,.48,2.06,.74,1.11,.25,1.87,.47,2.29,.66,.6,.28,1.04,.63,1.33,1.05,.29,.42,.43,.91,.43,1.47s-.16,1.07-.47,1.55-.77,.86-1.36,1.13c-.59,.27-1.25,.4-1.99,.4-.93,0-1.72-.14-2.35-.41-.63-.27-1.13-.68-1.49-1.23-.36-.55-.55-1.17-.57-1.86Z"/><path d="M227.92,397.43v-9.11h-3.4v-1.22h8.19v1.22h-3.42v9.11h-1.37Z"/><path d="M234.12,397.43v-10.33h4.58c.92,0,1.62,.09,2.1,.28s.86,.51,1.15,.98,.43,.99,.43,1.56c0,.73-.24,1.35-.71,1.85-.47,.5-1.21,.82-2.2,.96,.36,.17,.64,.34,.82,.51,.4,.37,.78,.82,1.13,1.37l1.8,2.81h-1.72l-1.37-2.15c-.4-.62-.73-1.09-.99-1.42-.26-.33-.49-.56-.69-.69-.2-.13-.41-.22-.62-.28-.16-.03-.41-.05-.76-.05h-1.58v4.59h-1.37Zm1.37-5.77h2.94c.62,0,1.11-.06,1.46-.19,.35-.13,.62-.34,.8-.62s.27-.59,.27-.93c0-.49-.18-.89-.53-1.2-.35-.31-.92-.47-1.68-.47h-3.27v3.42Z"/><path d="M251.3,387.1h1.37v5.97c0,1.04-.12,1.86-.35,2.47s-.66,1.11-1.27,1.49c-.61,.38-1.42,.57-2.41,.57s-1.76-.17-2.37-.5c-.62-.33-1.05-.82-1.32-1.45-.26-.63-.39-1.5-.39-2.59v-5.97h1.37v5.96c0,.9,.08,1.56,.25,1.98,.17,.43,.45,.75,.86,.98,.41,.23,.9,.34,1.49,.34,1,0,1.72-.23,2.15-.68,.43-.46,.64-1.33,.64-2.63v-5.96Z"/><path d="M262.31,393.81l1.37,.35c-.29,1.12-.8,1.98-1.55,2.57-.74,.59-1.65,.88-2.73,.88s-2.02-.23-2.72-.68-1.23-1.11-1.59-1.97c-.36-.86-.55-1.78-.55-2.77,0-1.08,.21-2.01,.62-2.81,.41-.8,1-1.41,1.75-1.82s1.59-.62,2.5-.62c1.03,0,1.9,.26,2.61,.79,.7,.53,1.2,1.27,1.47,2.22l-1.35,.32c-.24-.75-.59-1.3-1.04-1.64-.46-.34-1.03-.51-1.72-.51-.79,0-1.46,.19-1.99,.57-.53,.38-.91,.89-1.12,1.53-.22,.64-.32,1.3-.32,1.98,0,.88,.13,1.64,.38,2.3s.65,1.14,1.19,1.47c.54,.32,1.12,.49,1.75,.49,.77,0,1.41-.22,1.94-.66s.89-1.1,1.08-1.97Z"/><path d="M272.73,393.81l1.37,.35c-.29,1.12-.8,1.98-1.55,2.57-.74,.59-1.65,.88-2.73,.88s-2.02-.23-2.72-.68-1.23-1.11-1.59-1.97c-.36-.86-.55-1.78-.55-2.77,0-1.08,.21-2.01,.62-2.81,.41-.8,1-1.41,1.75-1.82s1.59-.62,2.5-.62c1.03,0,1.9,.26,2.61,.79,.7,.53,1.2,1.27,1.47,2.22l-1.35,.32c-.24-.75-.59-1.3-1.04-1.64-.46-.34-1.03-.51-1.72-.51-.79,0-1.46,.19-1.99,.57-.53,.38-.91,.89-1.12,1.53-.22,.64-.32,1.3-.32,1.98,0,.88,.13,1.64,.38,2.3s.65,1.14,1.19,1.47c.54,.32,1.12,.49,1.75,.49,.77,0,1.41-.22,1.94-.66s.89-1.1,1.08-1.97Z"/><path d="M276.01,397.43v-10.33h1.37v10.33h-1.37Z"/><path d="M279.37,392.4c0-1.71,.46-3.06,1.38-4.03s2.11-1.46,3.56-1.46c.95,0,1.81,.23,2.58,.68,.77,.46,1.35,1.09,1.75,1.91,.4,.82,.6,1.74,.6,2.77s-.21,1.98-.63,2.81c-.42,.83-1.02,1.45-1.8,1.88-.77,.42-1.61,.64-2.51,.64-.97,0-1.84-.23-2.61-.7-.77-.47-1.35-1.11-1.74-1.92s-.59-1.67-.59-2.58Zm1.41,.02c0,1.25,.33,2.23,1,2.94,.67,.72,1.51,1.07,2.52,1.07s1.88-.36,2.54-1.08,1-1.75,1-3.08c0-.84-.14-1.58-.43-2.2s-.7-1.11-1.25-1.46c-.55-.34-1.16-.52-1.84-.52-.97,0-1.8,.33-2.5,1-.7,.66-1.05,1.77-1.05,3.33Zm2.66-5.95l.94-1.97h1.66l-1.55,1.97h-1.05Z"/><path d="M290.99,397.43v-10.33h1.4l5.42,8.11v-8.11h1.31v10.33h-1.4l-5.42-8.12v8.12h-1.31Z"/></g></g></g></g></svg>